<svg id="a9528f85919086b1ad181c6655aea08d" xmlns="http://www.w3.org/2000/svg" width="13.459" height="9.947" viewBox="0 0 13.459 9.947">
  <ellipse id="Ellipse_6" data-name="Ellipse 6" cx="3.546" cy="0.975" rx="3.546" ry="0.975" fill="#fff27d"/>
  <path id="Path_11" data-name="Path 11" d="M7.649,6.12a.23.23,0,0,1,0,.093c0,.532-1.587.975-3.546.975a7.854,7.854,0,0,1-3.1-.5c.164.5,1.68.886,3.546.886,1.959,0,3.546-.443,3.546-.975C8.092,6.426,7.923,6.262,7.649,6.12Z" transform="translate(-1 -5.624)" fill="#f7e76f"/>
  <path id="Path_12" data-name="Path 12" d="M8.092,7.2V9.8c0,.541-1.587.975-3.546.975S1,10.329,1,9.8V7.2c0,.536,1.587.975,3.546.975S8.092,7.736,8.092,7.2Z" transform="translate(-1 -6.225)" fill="#ffc661"/>
  <path id="Path_13" data-name="Path 13" d="M4.767,10.413c-1.959,0-3.546-.443-3.546-.975V7.555A.443.443,0,0,1,1,7.2V9.8c0,.541,1.587.975,3.546.975s3.546-.443,3.546-.975V9.771A6.525,6.525,0,0,1,4.767,10.413Z" transform="translate(-1 -6.225)" fill="#f7b54b"/>
  <path id="Path_14" data-name="Path 14" d="M8.092,13.06v2.606c0,.536-1.587.975-3.546.975S1,16.2,1,15.666V13.06c0,.541,1.587.975,3.546.975S8.092,13.6,8.092,13.06Z" transform="translate(-1 -9.488)" fill="#fff27d"/>
  <path id="Path_15" data-name="Path 15" d="M4.767,16.283c-1.959,0-3.546-.443-3.546-.975v-1.9A.443.443,0,0,1,1,13.07v2.6c0,.541,1.587.975,3.546.975s3.546-.443,3.546-.975V15.65A6.594,6.594,0,0,1,4.767,16.283Z" transform="translate(-1 -9.493)" fill="#f7e76f"/>
  <path id="Path_16" data-name="Path 16" d="M8.092,18.94v2.6c0,.532-1.587.975-3.546.975S1,22.069,1,21.537v-2.6c0,.536,1.587.975,3.546.975S8.092,19.476,8.092,18.94Z" transform="translate(-1 -12.761)" fill="#ffc661"/>
  <path id="Path_17" data-name="Path 17" d="M4.767,22.153c-1.959,0-3.546-.443-3.546-.975v-1.9A.443.443,0,0,1,1,18.94v2.6c0,.532,1.587.975,3.546.975s3.546-.443,3.546-.975v-.022A6.584,6.584,0,0,1,4.767,22.153Z" transform="translate(-1 -12.761)" fill="#f7b54b"/>
  <circle id="Ellipse_7" data-name="Ellipse 7" cx="3.989" cy="3.989" r="3.989" transform="translate(5.481 1.969)" fill="#ffc661"/>
  <path id="Path_18" data-name="Path 18" d="M17.427,17.481a3.989,3.989,0,0,1-2.761-6.861,3.989,3.989,0,1,0,5.04,6.143A3.962,3.962,0,0,1,17.427,17.481Z" transform="translate(-7.636 -8.129)" fill="#f7b54b"/>
  <circle id="Ellipse_8" data-name="Ellipse 8" cx="2.659" cy="2.659" r="2.659" transform="translate(6.811 3.299)" fill="#fff27d"/>
  <path id="Path_19" data-name="Path 19" d="M19.083,17.633a2.659,2.659,0,0,1-2.11-4.273,2.659,2.659,0,1,0,3.776,3.683A2.659,2.659,0,0,1,19.083,17.633Z" transform="translate(-9.332 -9.655)" fill="#f7e76f"/>
</svg>
